<svg width="30" height="29" viewBox="0 0 30 29" fill="none" xmlns="http://www.w3.org/2000/svg">
<path d="M26.25 2.5L23.75 5M23.75 5L27.5 8.75L23.125 13.125L19.375 9.375M23.75 5L19.375 9.375M14.2375 14.5125C14.8829 15.1493 15.396 15.9075 15.7472 16.7435C16.0984 17.5794 16.2808 18.4766 16.2838 19.3833C16.2868 20.29 16.1105 21.1884 15.7649 22.0266C15.4193 22.8649 14.9113 23.6265 14.2702 24.2677C13.629 24.9088 12.8674 25.4168 12.0291 25.7624C11.1909 26.108 10.2925 26.2843 9.3858 26.2813C8.47909 26.2782 7.58194 26.0959 6.746 25.7447C5.91006 25.3935 5.15184 24.8804 4.51501 24.235C3.26267 22.9384 2.56971 21.2017 2.58537 19.3991C2.60104 17.5965 3.32407 15.8722 4.59875 14.5975C5.87344 13.3228 7.59777 12.5998 9.40037 12.5841C11.203 12.5685 12.9396 13.2614 14.2363 14.5138L14.2375 14.5125ZM14.2375 14.5125L19.375 9.375" stroke="#1E1E1E" stroke-width="4" stroke-linecap="round" stroke-linejoin="round"/>
</svg>
